<?xml version="1.0" encoding="UTF-8"?>
<svg id="Camada_2" xmlns="http://www.w3.org/2000/svg" viewBox="0 0 549.97 195.77">
  <defs>
    <style>
      .cls-1 {
        fill: #750515;
      }

      .cls-2 {
        fill: #121832;
      }
    </style>
  </defs>
  <g id="Camada_1-2" data-name="Camada_1">
    <g>
      <g id="risco_do_E">
        <g>
          <polygon class="cls-2" points="431.29 191.89 434.61 191.89 461.78 147.63 431.29 147.64 431.29 191.89"/>
          <polygon class="cls-2" points="423.06 118.13 479.9 118.13 505.24 76.86 423.06 76.86 423.06 118.13"/>
          <polygon class="cls-2" points="431.29 49.21 522.21 49.21 549.97 4 431.29 4 431.29 49.21"/>
        </g>
      </g>
      <g>
        <rect class="cls-2" x="336.05" y="76.86" width="81.6" height="41.27"/>
        <path class="cls-2" d="M336.05,170.59l-1.46,1.56c-8.5,9.09-18.99,15.39-29.92,19.74h121.2v-44.26h-89.82s0,22.95,0,22.95Z"/>
        <path class="cls-2" d="M302.73,4c19.95,7.56,30.06,17.02,30.74,17.68l3.69,3.54-37.21,43.46-4.17-3.16c-2.14-1.62-6.3-4.77-12.29-7.69v19.05l47.12-.12v-27.55h95.25s0-45.21,0-45.21h-123.14Z"/>
      </g>
      <path id="P" class="cls-2" d="M162.38,39.08C147.32,3.56,101.09,4,88.39,4H0v187.89h55.4v-56.96l38.22.06c33.31,0,55.62-22.02,55.62-22.02,18.61-18.61,20.83-55.74,13.14-73.88ZM90.05,94.47l-34.74-.2v-49.78h33.22c4.98,0,26.33,0,26.33,24.99s-24.82,24.99-24.82,24.99Z"/>
      <g id="Contorno_P">
        <path class="cls-1" d="M245.6,82.37l-.53,37.86h38.43v27.81s-40.94,14.55-66.37-8.97c-4.41-4.08-10.08-10.31-13.42-19.74-2.58-7.27-2.75-15.31-2.75-21.57,0-14.04,9.31-42.11,34.17-48.95,35.13-9.67,58.03,7.91,64.04,12.47l30.57-35.71S303.05,0,248.15,0c0,0-49.56.91-79.73,39.78,6.89,20.05,4.61,57.03-15.36,77-.25.25-1.91,1.86-4.81,4.13,4.97,26.57,23.16,68.33,88.08,74.17,0,0,62.49,7.4,94.31-26.63v-86.29s-85.04.21-85.04.21Z"/>
      </g>
    </g>
  </g>
</svg>